<svg id="Layer_1" enable-background="new 0 0 494.406 494.406" height="512" viewBox="0 0 494.406 494.406" width="512" xmlns="http://www.w3.org/2000/svg"><g><g><path d="m427.141 300.406c-24.853 0-45-20.147-45-45 0 24.853-20.147 45-45 45-24.853 0-45-20.147-45-45 0 24.853-20.147 45-45 45-24.058 0-43.706-18.88-44.937-42.632-1.232 23.752-20.879 42.632-44.937 42.632-24.853 0-45-20.147-45-45h-.125c0 24.853-20.147 45-45 45-11.498 0-21.983-4.318-29.937-11.413v197.913h419.875v-197.913c-7.956 7.095-18.442 11.413-29.939 11.413z" fill="#f05475"/><path d="m437.078 299.295v187.612h20v-197.914c-5.591 4.987-12.435 8.594-20 10.302z" fill="#e21743"/><path d="m442.141 120.406h-390l-30 120v15c0 24.853 20.147 45 45 45 24.853 0 45-20.147 45-45h.125c0 24.853 20.147 45 45 45 24.058 0 43.706-18.88 44.937-42.632 1.232 23.752 20.879 42.632 44.937 42.632 24.853 0 45-20.147 45-45 0 24.853 20.147 45 45 45 24.853 0 45-20.147 45-45 0 24.853 20.147 45 45 45 24.853 0 45-20.147 45-45v-15z" fill="#fff"/><path d="m202.141 120.406v138.186c.019-.273.048-.544.062-.818 1.232 23.752 20.879 42.632 44.937 42.632 24.853 0 45-20.147 45-45v-135z" fill="#b6e6fa"/><path d="m67.141 300.406c-24.853 0-45-20.147-45-45v-15l30-120h75l-14.957 136.692c-.021-.562-.043-1.124-.043-1.692 0 24.853-20.148 45-45 45z" fill="#b6e6fa"/><path d="m107.141 120.406-14.958 136.692c-.021-.562-.043-1.124-.043-1.692 0 21.414-14.963 39.322-35 43.871 3.218.73 6.561 1.129 10 1.129 24.853 0 45-20.147 45-45 0 .567.022 1.129.043 1.692l14.957-136.692z" fill="#54c9f3"/><path d="m427.141 300.406c24.853 0 45-20.147 45-45v-15l-30-120h-75l14.957 136.692c.021-.562.043-1.124.043-1.692 0 24.853 20.147 45 45 45z" fill="#b6e6fa"/><path d="m442.141 120.406h-20l30 120v15c0 21.414-14.963 39.322-35 43.871 3.218.73 6.561 1.129 10 1.129 24.853 0 45-20.147 45-45v-15z" fill="#54c9f3"/><circle cx="247.203" cy="127.437" fill="#fee95d" r="119.937"/><path d="m247.203 7.5c-3.368 0-6.702.146-10 .418 61.56 5.082 109.937 56.648 109.937 119.519s-48.378 114.437-109.937 119.519c3.298.272 6.632.418 10 .418 66.24 0 119.937-53.698 119.937-119.938s-53.697-119.936-119.937-119.936z" fill="#fcad42"/><path d="m37.203 328.969h150v97.938h-150z" fill="#8ad8f6"/><path d="m167.203 328.969h20v97.938h-20z" fill="#00adeb"/><path d="m307.141 328.969h150v97.938h-150z" fill="#8ad8f6"/><path d="m437.141 328.969h20v97.938h-20z" fill="#00adeb"/><path d="m187.203 328.969h119.875v157.938h-119.875z" fill="#fee95d"/><path d="m287.078 328.969v137.937h-99.875v20h119.875v-157.937z" fill="#fcad42"/><g fill="#fff"><path d="m212.234 150.405h-20c-11.046 0-20-8.954-20-20v-25.063h60v25.063c0 11.046-8.954 20-20 20z"/><path d="m322.172 123.599c0 26.786-13.431 37-30 37s-30-10.214-30-37 13.431-48.5 30-48.5 30 21.714 30 48.5z"/></g></g><g><g><path d="m144.203 368.469h-15v-15h15zm-30 0h-15v-15h15zm-30 0h-15v-15h15z" fill="#fff"/></g><g><path d="m464.578 479.406v-82.031h-15v22.031h-134.937v-82.938h134.937v45.938h15v-90.242c9.308-9.478 15.063-22.456 15.063-36.758v-15.923l-31.644-126.577h-74.179c-3.743-32.976-20.15-63.166-46.297-84.415l-9.46 11.641c26.424 21.474 41.58 53.296 41.58 87.305 0 43.062-24.338 80.541-59.976 99.422l.007-59.387c18.931-3.241 30.001-19.121 30.001-43.874 0-31.402-16.472-56-37.5-56s-37.5 24.598-37.5 56c0 24.752 11.069 40.632 29.999 43.873l-.007 65.978c-11.723 4.155-24.331 6.425-37.461 6.425-13.147 0-25.77-2.276-37.506-6.441l.034-75.529h2.503c15.164 0 27.5-12.336 27.5-27.5v-55.024h-15v22.463h-15v-22.438h-15v22.438h-15v-22.463h-15v55.025c0 15.164 12.336 27.5 27.5 27.5h2.497l-.031 68.932c-35.616-18.889-59.934-56.355-59.934-99.4-.001-61.998 50.438-112.437 112.436-112.437 21.06 0 41.589 5.855 59.369 16.933l7.932-12.731c-20.162-12.562-43.434-19.202-67.301-19.202-65.356 0-119.368 49.455-126.604 112.906h-74.314l-31.644 126.577v15.923c0 14.302 5.755 27.28 15.062 36.758v187.242h-22.437v15h479.875v-15zm.063-224c0 20.678-16.822 37.5-37.5 37.5s-37.5-16.822-37.5-37.5h-.183l-.817-7.469h76zm-28.356-127.5 26.258 105.031h-75.544l-11.493-105.031zm-70.746 46.818 6.37 58.213h-53.297c20.913-14.2 37.398-34.45 46.927-58.213zm8.012 73.213 1.036 9.466c-1.042 19.753-17.438 35.503-37.446 35.503-20.272 0-36.827-16.171-37.469-36.289l-.004-8.679h73.883zm-103.879-124.338c0-19.393 9.24-41 22.5-41s22.5 21.607 22.5 41c0 19.575-7.57 29.5-22.5 29.5s-22.5-9.926-22.5-29.5zm-22.469 131.276c13.033 0 25.614-1.971 37.465-5.623l.003 6.154h-.03c0 20.678-16.822 37.5-37.5 37.5-19.921 0-36.338-15.534-37.438-35.387l-.004-8.278c11.862 3.659 24.457 5.634 37.504 5.634zm-54.969-111.97c-6.893 0-12.5-5.607-12.5-12.5v-17.563h45v17.563c0 6.893-5.607 12.5-12.5 12.5zm9.969 139.69c9.22 15.22 25.942 25.312 44.938 25.312 19.074 0 35.805-10.226 45-25.481 9.195 15.255 25.926 25.481 45 25.481s35.805-10.226 45-25.481c9.195 15.255 25.926 25.481 45 25.481 8.024 0 15.63-1.815 22.437-5.048v18.61h-404.875v-18.61c6.808 3.232 14.414 5.048 22.438 5.048 19.118 0 35.881-10.271 45.062-25.585 9.181 15.314 25.945 25.585 45.063 25.585 18.995-.001 35.717-10.092 44.937-25.312zm-82.437-27.899.751-6.759h36.749v-15h-35.082l6.514-58.627c12.197 30.728 36.013 55.625 65.999 69.239l.006 13.973c-1.101 19.852-17.517 35.384-37.437 35.384-20.678 0-37.5-16.822-37.5-37.5zm-61.769-126.79h60.765l-11.67 105.031h-75.353zm-28.356 127.5v-7.469h75v7.469c0 20.678-16.822 37.5-37.5 37.5s-37.5-16.822-37.5-37.5zm150.062 224h-135v-45h135zm0-60h-135v-82.938h135zm119.875 60h-104.875v-45-97.938h104.875zm150 0h-135v-45h135z"/><path d="m224.641 389.437h15v30h-15z"/><path d="m254.641 389.437h15v30h-15z"/></g></g></g></svg>