<svg viewBox="0 0 32 32" xmlns="http://www.w3.org/2000/svg"><g fill="#231f20"><path d="m3 10.5h2a7.63 7.63 0 0 1 5.57 2.43l1.3 1.4a1.5 1.5 0 0 0 2.2-2.05l-1.3-1.39a10.61 10.61 0 0 0 -7.77-3.39h-2a1.5 1.5 0 0 0 0 3z"/><path d="m26.82 4.7a1.5 1.5 0 1 0 -2.12 2.12l.71.71a10.61 10.61 0 0 0 -7.21 3.36l-7.6 8.18a7.63 7.63 0 0 1 -5.6 2.43h-2a1.5 1.5 0 0 0 0 3h2a10.61 10.61 0 0 0 7.77-3.39l7.6-8.18a7.65 7.65 0 0 1 5-2.4l-.65.65a1.49 1.49 0 0 0 0 2.12 1.46 1.46 0 0 0 1.06.44 1.47 1.47 0 0 0 1.06-.44l3.24-3.24a1.49 1.49 0 0 0 0-2.12z"/><path d="m26.82 18.7a1.5 1.5 0 1 0 -2.12 2.12l.65.65a7.65 7.65 0 0 1 -5-2.4l-1.3-1.4a1.5 1.5 0 0 0 -2.2 2l1.3 1.39a10.61 10.61 0 0 0 7.21 3.36l-.71.71a1.49 1.49 0 0 0 0 2.12 1.46 1.46 0 0 0 1.06.44 1.47 1.47 0 0 0 1.06-.44l3.24-3.24a1.49 1.49 0 0 0 0-2.12z"/></g></svg>