<svg height="512" viewBox="0 0 24 24" width="512" xmlns="http://www.w3.org/2000/svg"><g id="Line"><path d="m7.56 12.66-.78 2.34a1.74 1.74 0 0 0 .42 1.8 1.75 1.75 0 0 0 1.8.42l2.35-.78a.79.79 0 0 0 .29-.18l10.6-10.61a1.75 1.75 0 0 0 0-2.47l-1.42-1.42a1.75 1.75 0 0 0 -2.47 0l-10.61 10.61a.79.79 0 0 0 -.18.29zm11.85-9.84a.26.26 0 0 1 .35 0l1.42 1.42a.26.26 0 0 1 0 .35l-1.59 1.59-1.77-1.77zm-11.21 12.66.73-2.18 7.83-7.83 1.77 1.77-7.83 7.83-2.18.73a.25.25 0 0 1 -.32-.32zm14.55-5v8.52a3.75 3.75 0 0 1 -3.75 3.75h-14a3.75 3.75 0 0 1 -3.75-3.75v-14a3.75 3.75 0 0 1 3.75-3.75h8.51a.75.75 0 0 1 0 1.5h-8.51a2.25 2.25 0 0 0 -2.25 2.25v14a2.25 2.25 0 0 0 2.25 2.25h14a2.25 2.25 0 0 0 2.25-2.25v-8.51a.75.75 0 0 1 1.5 0z"/></g></svg>