<svg xmlns="http://www.w3.org/2000/svg" 
	 xmlns:xlink="http://www.w3.org/1999/xlink" 
	 version="1.1" id="Layer_1" x="0px" y="0px" viewBox="0 0 1024 1024" style="enable-background:new 0 0 1024 1024;" xml:space="preserve">

<style type="text/css">
	.st0 {
		fill:#2f348e;
		stroke:#2f348e;
		stroke-width:47;
		stroke-miterlimit:10;
	}
</style>

<path class="st0" 
	  d="M827.2,0c19.4,0,43.1,19,53,42.5L1024,380.9v540.7c0,56.6-45.8,102.4-102.4,102.4l0,0H102.4  C45.8,1024,0,978.2,0,921.6l0,0V380.8L143.8,42.5C153.6,19,177.4,0,196.8,0H827.2z M345.1,452.5H71.7v469.1  c0,17,13.8,30.7,30.7,30.7h819.2c17,0,30.7-13.8,30.7-30.7V452.5H730.1C700.5,558.8,590.3,621,484,591.4  C416.6,572.6,363.9,519.9,345.1,452.5z M814.7,71.7H209.3L77.8,380.8h333.1c-10,70,38.7,134.8,108.7,144.8s134.8-38.7,144.8-108.7  c1.7-12,1.7-24.1,0-36.1h281.9L814.7,71.7z" 
	  fill="#4a4b4d" 
	/>
</svg>