<svg xmlns="http://www.w3.org/2000/svg" id="Capa_1" enable-background="new 0 0 469.333 469.333" height="512" viewBox="0 0 469.333 469.333" width="512">
    <g>
        <path d="m234.667 0c-129.603 0-234.667 105.064-234.667 234.667s105.064 234.667 234.667 234.667 234.666-105.064 234.666-234.667c-.152-129.54-105.127-234.514-234.666-234.667zm0 426.667c-39.713-.923-78.31-13.326-111.125-35.712 55.095-61.373 149.51-66.462 210.883-11.368 3.991 3.582 7.785 7.377 11.368 11.368-32.544 22.938-71.313 35.397-111.126 35.712zm142.805-64.128c-70.526-78.869-191.635-85.633-270.504-15.107-5.313 4.751-10.356 9.794-15.107 15.107-70.879-78.869-64.402-200.264 14.467-271.143s200.264-64.402 271.143 14.467c65.594 72.987 65.594 183.689.001 256.676z" fill="#4a4b4d"/>
        <path d="m234.667 106.667c-47.128 0-85.333 38.205-85.333 85.333s38.205 85.333 85.333 85.333 85.333-38.205 85.333-85.333-38.205-85.333-85.333-85.333zm0 128c-23.564 0-42.667-19.103-42.667-42.667s19.103-42.667 42.667-42.667 42.667 19.103 42.667 42.667-19.103 42.667-42.667 42.667z" fill="#4a4b4d"/>
    </g>
</svg>